<svg xmlns="http://www.w3.org/2000/svg" xmlns:xlink="http://www.w3.org/1999/xlink" version="1.1" id="Layer_1" x="0px" y="0px" viewBox="0 0 100 100" enable-background="new 0 0 100 100" xml:space="preserve" height="100px" width="100px">
<g>
	<path d="M30.5,23.5C11.8,30.9,2.6,52.2,10,71c7.4,18.7,28.7,28,47.4,20.6c18.7-7.4,28-28.7,20.6-47.4c-0.9-2.2-2-4.3-3.2-6.3   c-0.1,0.9-0.1,1.9-0.1,3c0.7,1.2,1.3,2.5,1.9,3.9c7.1,17.9-1.7,38.3-19.7,45.4c-17.9,7.1-38.3-1.7-45.4-19.7   C4.3,52.4,13.2,32.1,31.1,25c14.2-5.6,29.8-1.2,39.3,9.7c0.1-0.3,0.1-0.7,0.2-1c0.1-0.2,0.1-0.6,0.2-1c1-3.9,3.7-15,4.7-18.9   c-0.3-0.2-0.5-0.4-0.7-0.5c-1.3,0-2.6,0.2-3.9,0.7c-5.2,2-7.7,7.9-5.7,13.1c0.1,0.4,0.3,0.7,0.5,1.1C55.9,20.9,42.7,18.7,30.5,23.5   z"/>
	<path d="M43.4,56.1c-0.8,0.3-1.1,1.2-0.8,1.9c0.3,0.8,1.2,1.1,1.9,0.8c0.8-0.3,1.1-1.2,0.8-1.9C45,56.2,44.2,55.8,43.4,56.1z"/>
	<path d="M68.4,62.4L68.4,62.4c-0.3,0.4-0.6,0.8-1,1.1l2.1,1.8c0.7,0.6,0.8,1.7,0.2,2.5c-0.2,0.2-0.4,0.4-0.7,0.5   c-0.6,0.2-1.3,0.1-1.8-0.3L65,66.1c-3.1,2.9-5.9,4.8-6.8,5.4c-0.1,0-0.1,0.1-0.2,0.1l0,0l-0.8,0.3l-0.7-0.2c-0.5-0.3-0.8-0.8-1-1   c0-0.1-0.1-0.1-0.1-0.2c-0.6-0.8-0.3-1.8,0.2-2.3c0.2-0.2,1.7-1.6,3.4-3.4c0.1-0.1,0.1-0.2,0.2-0.2c1.9-1.9,3.2-3.5,4-4.5   c0.9-1.3,1.7-2.1,2.4-2.4c0.3-0.1,0.5-0.1,0.8-0.1c2.3-2.9,3.6-5.3,3.6-7.2c0.1-2.1,0-4.1,0-6.1c0-2.3-0.1-4.5,0.1-6.6   C61.4,26.3,45.9,21.5,31.9,27C15.1,33.7,6.9,52.7,13.5,69.6C20.2,86.4,39.2,94.6,56,88c16.5-6.5,24.8-25.1,18.7-41.7   c0,1.4,0,2.8,0,4.3C74.6,54,72.5,58,68.4,62.4z M48.1,68c-5.8,2.3-12.3-0.5-14.6-6.3C31.2,55.9,34,49.3,39.8,47   c5.8-2.3,12.3,0.6,14.6,6.3C56.7,59.2,53.9,65.7,48.1,68z"/>
	<path d="M80.2,15C80.1,15,80.1,15,80.2,15c-1.6,5.9-3.7,14.6-4.7,18.4c0.9-0.1,1.9-0.3,2.8-0.7c5.2-2.1,7.7-7.9,5.7-13.1   C83.2,17.7,81.8,16.1,80.2,15z"/>
	<path d="M79.1,13.8c1,0,1.7-0.2,1.7-0.2c0.1,0,0.1-0.1,0.1-0.2l0.3-5.6c-0.2-0.2-0.5-0.3-0.7-0.4c-0.1,0-0.1-0.1-0.2-0.1   c-0.2-0.1-0.3-0.1-0.4-0.2c-0.1,0-0.2,0-0.2-0.1c-0.1,0-0.3-0.1-0.4-0.1c-0.1,0-0.1,0-0.2,0c-0.1,0-0.2,0-0.4,0c0,0-0.1,0-0.1,0   c-0.1,0-0.3,0-0.4,0c0,0,0,0,0,0c-0.1,0-0.2,0.1-0.3,0.1c0,0,0,0,0,0c-0.1,0-0.1,0-0.2,0.1c0,0-0.1,0-0.1,0c-0.1,0-0.1,0.1-0.1,0.2   l-2,4.9c0.5,0.4,1,0.7,1.4,0.9c0,0.1,0,0.2-0.1,0.3c-1.4,5.5-4.1,16.4-4.9,19.8c0,0,0,0.1,0,0.1c0,0.2-0.1,0.4-0.1,0.5   c-0.1,0.6-0.2,1.2-0.3,1.8c-0.1,1.1-0.2,2.2-0.2,3.4c0,1.6,0,3.3,0,5.1c0,2,0.1,4,0,6.1c-0.1,2.6-2.1,5.7-4.4,8.5   c-0.1-0.1-0.3-0.3-0.7-0.2c-0.4,0.2-1,0.7-1.9,1.9c-0.9,1.3-2.6,3.1-4.1,4.7c0,0,0,0-0.1,0c0,0-0.1,0.1-0.1,0.1   c-1.9,1.9-3.5,3.5-3.5,3.5s-0.3,0.3,0,0.7c0.3,0.4,0.5,0.9,0.9,0.9l0,0c0,0,0,0,0.1-0.1l0,0c0,0,0.1-0.1,0.2-0.1   c0.8-0.5,4.1-2.7,7.4-6l3.1,2.6c0.2,0.1,0.4,0.2,0.6,0.1c0.1,0,0.2-0.1,0.2-0.2c0.2-0.2,0.2-0.6-0.1-0.8l-3-2.6   c0.6-0.6,1.2-1.3,1.7-1.9c0,0,0,0,0,0c3-3.2,5.9-7.4,6-11.1c0.1-2.1,0-4.2,0-6.2c0-0.3,0-0.6,0-0.9c0,0,0,0,0,0c0-0.8,0-1.5,0-2.2   c0-0.1,0.2-0.1,0.2-0.2c0-0.7,0.3-1.5,0.3-2.2c0,0,0,0,0,0c0-0.9-0.1-1.7,0-2.5c0,0-0.1,0-0.1,0c0.1-0.6,0.1-1.2,0.2-1.7   c0.6-2.4,3.5-14.2,5-20.2C79.1,14.2,79.1,14,79.1,13.8z"/>
</g>
</svg>